<?xml version="1.0" encoding="UTF-8"?>
<svg id="Layer_2" data-name="Layer 2" xmlns="http://www.w3.org/2000/svg" viewBox="0 0 949.28 1011.77">
  <defs>
    <style>
      .cls-1 {
        fill: #fff;
      }
    </style>
  </defs>
  <g id="Layer_1-2" data-name="Layer 1">
    <g>
      <path class="cls-1" d="M806.31,456.39l-268.13,293.5c-39.76,43.52-95.71,68.48-153.5,68.48-48.43,0-94.39-17.61-129.4-49.6-79.85-72.95-82.85-200.1-6.71-283.45l268.13-293.5L373.73,61.21,105.6,354.7c-35.92,39.33-63.32,84.5-81.42,134.25C6.7,537.03-1.37,587.26.19,638.26c1.57,51.27,12.8,100.74,33.37,147.03,21.47,48.29,52.12,90.83,91.1,126.44,38.99,35.62,84.12,62.31,134.15,79.34,40.37,13.73,82.58,20.7,125.48,20.7,7.92,0,15.99-.24,23.95-.72,50.94-3.04,100.25-15.61,146.54-37.36,47.93-22.51,90.44-53.86,126.37-93.19l268.13-293.49-142.97-130.62ZM376.41,120.54l80.96,73.96-81.99,89.74-80.95-73.95,81.98-89.75ZM727,605.47l81.99-89.74,80.95,73.96-81.98,89.74-80.96-73.96Z"/>
      <polygon class="cls-1" points="949.28 0 597.54 227 696.28 270.18 493.95 463.93 874.53 256.56 763.19 207.88 949.28 0"/>
    </g>
  </g>
</svg>
